<?xml version="1.0" encoding="UTF-8"?>
<svg version="1.1" xmlns="http://www.w3.org/2000/svg" width="400" height="400">
<path d="M0 0 C1.5631897 0.00785522 1.5631897 0.00785522 3.15795898 0.01586914 C4.28266602 0.0190918 5.40737305 0.02231445 6.56616211 0.02563477 C7.75016602 0.03401367 8.93416992 0.04239258 10.15405273 0.05102539 C11.34192383 0.05553711 12.52979492 0.06004883 13.75366211 0.06469727 C16.69967499 0.07652864 19.64558954 0.09301252 22.59155273 0.11352539 C23.78736828 14.4389431 24.89468991 28.75448354 25.59155273 43.11352539 C28.07660772 40.07026938 29.59117948 37.08592601 31.07983398 33.45727539 C31.53938477 32.35125977 31.99893555 31.24524414 32.47241211 30.10571289 C32.94485352 28.95329102 33.41729492 27.80086914 33.90405273 26.61352539 C43.53911371 3.16596442 43.53911371 3.16596442 46.59155273 0.11352539 C49.4542284 0.04027371 52.29227173 0.02114334 55.15405273 0.05102539 C55.96036133 0.05553711 56.76666992 0.06004883 57.59741211 0.06469727 C59.5954903 0.07652021 61.59353056 0.09445625 63.59155273 0.11352539 C65.63416237 4.48011075 66.2587901 8.85490893 66.84545898 13.59008789 C66.95123764 14.39715179 67.0570163 15.2042157 67.16600037 16.03573608 C67.501567 18.60257169 67.82834554 21.17042167 68.15405273 23.73852539 C68.4845888 26.31358162 68.81702384 28.88836193 69.15281677 31.46273804 C69.36097262 33.06160936 69.56589521 34.66090571 69.76722717 36.26065063 C70.16534954 39.3427515 70.6060023 42.15687409 71.59155273 45.11352539 C71.89859131 44.10563965 72.20562988 43.09775391 72.52197266 42.05932617 C73.67794854 38.27319214 74.84561253 34.49074345 76.01660156 30.70922852 C76.5190803 29.08095929 77.01850453 27.45174385 77.51464844 25.8215332 C78.23382307 23.46049665 78.96440322 21.10323292 79.69702148 18.74633789 C79.91182663 18.03236847 80.12663177 17.31839905 80.34794617 16.58279419 C82.22857004 10.59517308 84.68623403 5.9241628 87.59155273 0.11352539 C95.51155273 0.11352539 103.43155273 0.11352539 111.59155273 0.11352539 C110.88871396 4.33055801 110.24314403 7.47339365 108.81665039 11.36743164 C108.45147308 12.37222061 108.08629578 13.37700958 107.71005249 14.4122467 C107.3125882 15.48929367 106.9151239 16.56634064 106.50561523 17.67602539 C106.09227936 18.80878403 105.67894348 19.94154266 105.25308228 21.10862732 C103.91252423 24.77875957 102.56463091 28.44614948 101.21655273 32.11352539 C100.300403 34.61734641 99.38465724 37.12131118 98.46948242 39.62548828 C96.245644 45.70661253 94.01610067 51.78562399 91.78430176 57.86383057 C90.12591774 62.3821675 88.4717906 66.90205726 86.81811523 71.42211914 C84.41509303 77.98806821 82.0066664 84.55201243 79.59155273 91.11352539 C76.11240333 91.14240353 72.63328443 91.16028226 69.15405273 91.17602539 C67.66421875 91.18859375 67.66421875 91.18859375 66.14428711 91.20141602 C65.20004883 91.20463867 64.25581055 91.20786133 63.28295898 91.21118164 C62.40841064 91.21641846 61.5338623 91.22165527 60.6328125 91.22705078 C58.59155273 91.11352539 58.59155273 91.11352539 57.59155273 90.11352539 C57.26969102 88.64471352 57.00284296 87.1637773 56.75952148 85.67993164 C56.52410645 84.25874023 56.52410645 84.25874023 56.28393555 82.80883789 C56.11732422 81.77500977 55.95071289 80.74118164 55.77905273 79.67602539 C55.51946777 78.09241211 55.51946777 78.09241211 55.25463867 76.47680664 C53.28284751 64.3689431 51.42803018 52.24254363 49.59155273 40.11352539 C47.7981511 44.133587 46.00689161 48.15459886 44.21655273 52.17602539 C43.94821625 52.7785614 43.67987976 53.38109741 43.40341187 54.00189209 C39.0807555 63.71228414 34.81725353 73.44681271 30.62719727 83.21533203 C30.04687744 84.56099243 30.04687744 84.56099243 29.45483398 85.93383789 C29.11750244 86.72032715 28.7801709 87.50681641 28.43261719 88.31713867 C27.59155273 90.11352539 27.59155273 90.11352539 26.59155273 91.11352539 C25.02982529 91.20038142 23.46425929 91.22054759 21.90014648 91.21118164 C20.9559082 91.20795898 20.01166992 91.20473633 19.03881836 91.20141602 C18.0455957 91.19303711 17.05237305 91.1846582 16.02905273 91.17602539 C15.03196289 91.17151367 14.03487305 91.16700195 13.00756836 91.16235352 C10.53550425 91.15052546 8.06355756 91.13404388 5.59155273 91.11352539 C4.18262579 88.2956715 4.15614081 85.66930091 3.85131836 82.53100586 C3.78450363 81.85415741 3.7176889 81.17730896 3.64884949 80.47994995 C3.42788065 78.23057072 3.21272563 75.98067726 2.99780273 73.73071289 C2.84495522 72.15761744 2.69183413 70.58454855 2.53845215 69.01150513 C2.21655596 65.7011861 1.89742772 62.39061529 1.58032227 59.07983398 C1.17809453 54.88173911 0.77004047 50.68423755 0.35993195 46.48690605 C0.04208385 43.22840467 -0.27298273 39.96963874 -0.5872345 36.71078873 C-0.73638672 35.16651491 -0.88625381 33.62230994 -1.03691101 32.07818222 C-1.81423473 24.09186133 -2.52600675 16.10430541 -3.07055664 8.09838867 C-3.12054054 7.41002867 -3.17052444 6.72166866 -3.22202301 6.01244926 C-3.32578643 4.38159034 -3.37291349 2.74729558 -3.40844727 1.11352539 C-2.40844727 0.11352539 -2.40844727 0.11352539 0 0 Z M49.59155273 37.11352539 C50.59155273 39.11352539 50.59155273 39.11352539 50.59155273 39.11352539 Z " fill="#9EE770" transform="translate(104.408447265625,154.886474609375)"/>
<path d="M0 0 C7.40994302 5.70378807 9.8253788 12.04196263 13.32421875 20.7890625 C13.32421875 29.6990625 13.32421875 38.6090625 13.32421875 47.7890625 C-6.14578125 47.7890625 -25.61578125 47.7890625 -45.67578125 47.7890625 C-42.49654094 56.80232442 -42.49654094 56.80232442 -36.67578125 62.7890625 C-31.5829086 64.48668672 -26.66006858 64.42403445 -21.55078125 62.7890625 C-17.57047289 60.02015234 -14.69728015 56.55252711 -11.67578125 52.7890625 C-6.8329131 54.28265735 -2.36227229 56.23939817 2.19921875 58.4140625 C2.88757813 58.73890625 3.5759375 59.06375 4.28515625 59.3984375 C5.96627094 60.19229722 7.64544796 60.99025808 9.32421875 61.7890625 C9.32421875 66.76820262 6.50893319 69.54280445 3.21875 73.00390625 C-8.05090736 83.77189365 -18.81027643 86.07668754 -34.08203125 85.94140625 C-45.20272574 85.46998551 -53.39960944 80.78363209 -61.40625 73.28125 C-64.86148481 69.48703346 -66.91653336 65.58282093 -68.67578125 60.7890625 C-68.91941406 60.1290625 -69.16304688 59.4690625 -69.4140625 58.7890625 C-73.37419483 44.99594855 -71.32429423 28.43987994 -64.80078125 15.9140625 C-58.19788963 4.67304213 -49.13087129 -2.31741355 -36.67578125 -6.2109375 C-23.70009999 -9.41217465 -11.14253433 -7.10183506 0 0 Z M-40.546875 21.875 C-42.03487984 24.15789558 -42.03487984 24.15789558 -42.67578125 28.7890625 C-32.11578125 28.7890625 -21.55578125 28.7890625 -10.67578125 28.7890625 C-12.30970583 21.1670176 -12.30970583 21.1670176 -16.67578125 15.7890625 C-25.57649244 10.87024842 -34.50862455 14.66858666 -40.546875 21.875 Z " fill="#9EE770" transform="translate(386.67578125,161.2109375)"/>
<path d="M0 0 C-0.28071979 3.18856164 -0.5765715 6.37555092 -0.875 9.5625 C-0.95363281 10.45775391 -1.03226562 11.35300781 -1.11328125 12.27539062 C-1.60298141 17.41724236 -2.39612617 22.08729401 -4 27 C-4.63615234 26.41992188 -4.63615234 26.41992188 -5.28515625 25.828125 C-11.85971927 19.99049102 -18.56592223 15.47667349 -27.5625 14.6875 C-31.22115241 15.02010476 -33.06087796 15.8624567 -36 18 C-36.26497763 20.84356023 -36.26497763 20.84356023 -35 24 C-32.02746255 26.1526899 -28.72785059 27.53401455 -25.375 29 C-16.37298481 33.03853069 -8.85198732 36.78109271 -4.7109375 46.125 C-1.65303744 54.18979137 -2.68392012 62.19886244 -6 70 C-10.36371821 77.93635301 -16.60952736 81.90470047 -25 85 C-38.20318355 87.94793679 -53.26845073 86.9359737 -65 80 C-65.99 79.34 -66.98 78.68 -68 78 C-68.49262105 71.86960472 -67.52919671 66.03609962 -66.5 60 C-66.35691406 59.12988281 -66.21382812 58.25976562 -66.06640625 57.36328125 C-65.71661973 55.24124305 -65.3591135 53.12047972 -65 51 C-64.01 51 -63.02 51 -62 51 C-60.5625 52.57421875 -60.5625 52.57421875 -59 54.6875 C-54.28299136 60.27839655 -48.49254998 63.40225175 -41.2109375 64.37109375 C-36.84338442 64.48060467 -33.84244593 64.17942833 -30 62 C-29.32987578 59.2140814 -29.32987578 59.2140814 -30 56 C-33.62343249 53.17372266 -37.26101074 51.35210166 -41.40234375 49.37890625 C-49.55074553 45.49380792 -57.01961855 41.93183919 -60.9375 33.3125 C-63.48504927 25.08073143 -62.70142173 16.86264284 -59.1171875 9.11328125 C-54.9420765 1.21560624 -47.59391748 -2.94401418 -39.3125 -5.875 C-25.32306438 -9.57032262 -12.45111146 -6.44309728 0 0 Z " fill="#9EE770" transform="translate(315,161)"/>
<path d="M0 0 C28.05 0 56.1 0 85 0 C82.74968627 10.12641178 82.74968627 10.12641178 81.37109375 13.84765625 C81.06292725 14.6876416 80.75476074 15.52762695 80.43725586 16.39306641 C80.10733643 17.27397949 79.77741699 18.15489258 79.4375 19.0625 C79.08888916 20.00786621 78.74027832 20.95323242 78.38110352 21.92724609 C75.38989676 30.01844376 72.33753588 38.08702608 69.29345703 46.15844727 C66.57842201 53.38386795 63.9911788 60.64649201 61.46826172 67.94091797 C58.78445135 75.68200875 55.90786144 83.34026743 53 91 C46.4 91 39.8 91 33 91 C33.79546393 85.43175249 34.89730613 81.24608725 37 76.1875 C40.08203148 68.53757345 42.84025789 60.80618424 45.5 53 C48.43695267 44.39525494 51.49482563 35.86849443 54.88085938 27.4296875 C56.1398301 24.28378488 57.17544315 21.29822741 58 18 C48.43 18.33 38.86 18.66 29 19 C30.65 21.97 32.3 24.94 34 28 C32.65499218 34.72503908 29.65664653 37.04769338 25 42 C30.61 42.33 36.22 42.66 42 43 C41.16331306 46.34674776 40.1749397 49.4520962 39 52.6875 C38.4740625 54.14736328 38.4740625 54.14736328 37.9375 55.63671875 C37 58 37 58 36 59 C34.58774954 59.0928726 33.17091066 59.11746772 31.75561523 59.11352539 C30.85475693 59.11344986 29.95389862 59.11337433 29.02574158 59.11329651 C28.04658279 59.10813522 27.06742401 59.10297394 26.05859375 59.09765625 C25.06118668 59.0962413 24.0637796 59.09482635 23.03614807 59.09336853 C19.83656876 59.08775114 16.63705831 59.07519571 13.4375 59.0625 C11.27408955 59.05748724 9.11067801 59.05292395 6.94726562 59.04882812 C1.63148675 59.03777607 -3.68425171 59.02102104 -9 59 C-8.25910207 54.46559164 -7.02481096 52.51818758 -3.8125 49.1875 C-0.93383189 46.12178689 1.7803347 43.09215608 4.25 39.6875 C6.57624269 36.48245452 9.15648383 33.76452961 12 31 C12.66 30.01 13.32 29.02 14 28 C12.41739337 25.14542982 10.83378048 22.29141904 9.25 19.4375 C8.8065625 18.63763672 8.363125 17.83777344 7.90625 17.01367188 C7.24882813 15.8293457 7.24882813 15.8293457 6.578125 14.62109375 C6.14564453 13.83976074 5.71316406 13.05842773 5.26757812 12.25341797 C4.10141305 10.18028552 2.89057654 8.14010976 1.671875 6.09765625 C0 3 0 3 0 0 Z " fill="#9EE770" transform="translate(9,155)"/>
<path d="M0 0 C8.25 0 16.5 0 25 0 C26.2369892 2.4739784 25.94101181 3.52892548 25.55029297 6.24560547 C25.36391266 7.57446022 25.36391266 7.57446022 25.17376709 8.93016052 C25.03134583 9.89937943 24.88892456 10.86859833 24.7421875 11.8671875 C24.52710541 13.38319298 24.52710541 13.38319298 24.30767822 14.92982483 C23.83595003 18.24574542 23.35553625 21.56034541 22.875 24.875 C22.54999929 27.14647725 22.22562057 29.41804357 21.90185547 31.68969727 C21.41110037 35.13155022 20.91976308 38.57331138 20.42593384 42.01472473 C19.41223258 49.08101545 18.41968553 56.1497671 17.453125 63.22265625 C17.33780426 64.06469604 17.22248352 64.90673584 17.10366821 65.77429199 C16.67187821 68.92927512 16.24046233 72.08430013 15.81341553 75.2399292 C15.5265806 77.35692279 15.23631059 79.47341908 14.9453125 81.58984375 C14.78562988 82.76409912 14.62594727 83.93835449 14.46142578 85.14819336 C14 88 14 88 13 91 C4.42 91 -4.16 91 -13 91 C-13 79.74972566 -13 79.74972566 -12.31323242 74.94970703 C-12.16274948 73.87383331 -12.01226654 72.79795959 -11.85722351 71.68948364 C-11.69164444 70.55703217 -11.52606537 69.42458069 -11.35546875 68.2578125 C-11.18501541 67.05422089 -11.01456207 65.85062927 -10.83894348 64.61056519 C-10.29494244 60.78108642 -9.7413085 56.95307135 -9.1875 53.125 C-8.82685482 50.59383814 -8.4668236 48.06258872 -8.10742188 45.53125 C-7.24421178 39.46544132 -6.36637623 33.40186823 -5.48284912 27.33898926 C-5.02621156 24.18125768 -4.58103907 21.02213016 -4.13916016 17.86230469 C-3.880737 16.05140329 -3.62212471 14.24052887 -3.36328125 12.4296875 C-3.25308151 11.62129425 -3.14288177 10.812901 -3.02934265 9.98001099 C-2.4716357 6.13898409 -1.76324332 3.52648663 0 0 Z " fill="#9EE770" transform="translate(223,155)"/>
</svg>
